<svg width="215" height="103" viewBox="0 0 215 103" fill="none" xmlns="http://www.w3.org/2000/svg">
<path d="M1.36914 43.95V37.45H7.96914V41.65L10.5191 44.2H17.1691L19.5691 41.85V15H26.3691V44.15L20.5191 50H7.36914L1.36914 43.95ZM31.873 44.8V30.3L37.023 25.1H51.323L56.473 30.3V44.8L51.323 50H37.023L31.873 44.8ZM48.123 44.5L49.873 42.75V32.35L48.123 30.6H40.223L38.473 32.35V42.75L40.223 44.5H48.123ZM86.0629 25.1V55.7L80.6629 61.05H67.1129L62.4629 56.45V53.05H69.0629V54.55L70.0129 55.55H77.7629L79.4629 53.8V46.75L76.0129 50H66.6129L61.4629 44.8V30.3L66.6129 25.1H76.4129L79.9629 28.5V25.1H86.0629ZM79.4629 33.75L76.0629 30.7H69.9629L68.0629 32.65V42.45L69.9629 44.4H75.4129L79.4629 40.25V33.75ZM91.541 44.8V30.3L96.691 25.1H110.991L116.141 30.3V44.8L110.991 50H96.691L91.541 44.8ZM107.791 44.5L109.541 42.75V32.35L107.791 30.6H99.891L98.141 32.35V42.75L99.891 44.5H107.791Z" fill="#EE6C4D"/>
<path d="M12.0416 74.048V63.028L15.9556 59.076H23.4796L25.7216 61.014V50.868H30.7376V78H26.0256V75.074L23.0996 78H15.9556L12.0416 74.048ZM22.6436 73.744L25.7216 70.59V65.65L23.1376 63.332H18.5016L17.0576 64.814V72.262L18.5016 73.744H22.6436ZM34.711 74.504V70.172L38.207 66.676H47.821V64.282L46.643 63.104H40.943L39.803 64.282V65.346H34.863V63.18L38.929 59.076H48.695L52.761 63.18V78H48.239V75.302L45.427 78H38.207L34.711 74.504ZM45.085 74.124L47.821 71.502V70.248H40.677L39.651 71.274V73.174L40.601 74.124H45.085Z" fill="white"/>
<path d="M61.6888 64.4H66.4768L74.3808 81.576H74.4568L82.3988 64.4H87.1868V91H82.2088V74.812H82.1328L76.0148 87.276H72.8228L66.7428 74.812H66.6668V91H61.6888V64.4ZM91.5484 87.124V76.028L95.4624 72.076H106.14L110.092 76.028V83.21H96.5644V85.642L97.7804 86.896H103.974L105.114 85.718V84.73H110.054V87.2L106.292 91H95.3864L91.5484 87.124ZM105.076 79.714V77.51L103.784 76.18H97.8564L96.5644 77.51V79.714H105.076ZM114.083 72.076H118.719V75.192L121.797 72.076H126.585L129.169 74.698L131.753 72.076H138.365L142.431 76.18V91H137.415V77.662L136.123 76.332H132.931L130.917 78.346V91H126.053V77.586L124.837 76.332H122.557L119.099 79.828V91H114.083V72.076ZM146.433 87.048V76.028L150.347 72.076H161.215L165.129 76.028V87.048L161.215 91H150.347L146.433 87.048ZM158.783 86.82L160.113 85.49V77.586L158.783 76.256H152.779L151.449 77.586V85.49L152.779 86.82H158.783ZM156.427 63.906H161.709L157.947 70.328H153.539L156.427 63.906ZM169.301 72.076H173.937V75.23L176.977 72.076H182.373V76.332H178.003L174.317 80.132V91H169.301V72.076ZM184.66 68.124V65.692L186.408 63.944H189.068L190.816 65.692V68.124L189.068 69.872H186.408L184.66 68.124ZM185.23 72.076H190.246V91H185.23V72.076ZM194.634 87.504V83.172L198.13 79.676H207.744V77.282L206.566 76.104H200.866L199.726 77.282V78.346H194.786V76.18L198.852 72.076H208.618L212.684 76.18V91H208.162V88.302L205.35 91H198.13L194.634 87.504ZM205.008 87.124L207.744 84.502V83.248H200.6L199.574 84.274V86.174L200.524 87.124H205.008Z" fill="#EE6C4D"/>
</svg>
